<?xml version="1.0" encoding="UTF-8"?>
<svg width="247px" height="229px" viewBox="0 0 247 229" version="1.1" xmlns="http://www.w3.org/2000/svg" xmlns:xlink="http://www.w3.org/1999/xlink">
    <!-- Generator: Sketch 60.1 (88133) - https://sketch.com -->
    <title>peep-34</title>
    <desc>Created with Sketch.</desc>
    <g id="Introduction" stroke="none" stroke-width="1" fill="none" fill-rule="evenodd">
        <g id="variations-busts" transform="translate(-1012.000000, -1556.000000)">
            <g id="images" transform="translate(40.000000, -115.000000)">
                <g id="a-person/bust" transform="translate(960.000000, 1620.000000)">
                    <g id="body/Whatever" transform="translate(31.056338, 135.052838)" fill-rule="evenodd">
                        <path d="M214.804615,59.8875533 C216.968629,58.757558 219.081517,57.5297808 221.161024,56.2518428 C222.625742,55.3754033 221.328981,53.1676901 219.82708,53.9653961 C219.059122,54.3734558 218.294122,54.7855369 217.526376,55.1910568 C218.130601,54.6703997 218.690671,54.1036031 219.192855,53.4857989 L219.158207,53.4513001 C221.094263,51.7159881 218.607432,48.4417744 216.405601,49.867232 C214.463841,51.2753344 212.504333,52.7120093 210.27546,53.6392446 C205.658841,55.597635 200.566657,55.92167 195.611587,55.9781803 C193.798277,55.8418782 192.066305,56.1561773 190.306869,56.5064568 C190.996657,53.7380848 192.722925,51.6476254 193.638559,48.9664529 C194.314193,46.2594592 190.408277,44.4155711 189.024052,47.0175867 C188.684333,47.6565558 188.36046,48.3029325 188.04377,48.952484 C185.051798,51.6749281 180.055742,51.4351295 177.038207,54.3582171 C175.319449,55.8843219 174.478213,57.9550753 174.146017,60.0333247 C173.920433,61.444602 174.271118,62.859336 173.418136,64.1093206 C169.294404,69.9442783 162.778544,79.1671052 159.46946,85.588543 C157.126502,70.3294799 150.870601,51.4558711 144.407714,37.5033188 C142.270531,33.041118 139.825531,28.6809321 136.615953,24.8985487 C136.979756,23.6371192 135.695671,21.398082 134.879122,22.0874236 C132.365671,19.0157582 127.922714,18.2205921 124.350179,16.6935429 C119.527573,14.6305978 115.526376,10.3425843 113.559474,5.46893742 C111.032291,-3.81188145 104.811094,-4.99076768 96.1831363,-4.58059147 C87.9259532,-4.59096228 81.8167278,-1.05790163 80.0150377,7.3509224 C76.3548264,13.733205 67.7127137,12.6777103 61.4953194,14.3673061 C56.9386997,15.4086204 52.5166574,17.0186361 48.3141222,19.0625327 C43.6389813,14.6261531 26.8949673,33.2449362 25.3729954,38.0366748 C26.2689813,38.2104388 27.1594743,38.4195483 28.0419391,38.674374 C28.8278546,38.9016852 28.4978546,40.0892491 27.7051785,39.8991881 C26.7187701,39.6621409 25.7260236,39.4989594 24.7286292,39.385727 C24.6982067,39.4811808 24.671587,39.5759997 24.6517278,39.6697603 C24.539756,39.6621409 24.4279954,39.6526167 24.3160236,39.6449973 C24.564263,39.774315 24.8032067,39.9243743 25.0360236,40.1178217 C25.5988405,40.5853549 24.8661644,41.4876156 24.2680659,41.1151129 C23.7046152,40.693296 22.9666574,40.7599655 22.2908123,40.6183722 C22.2506715,42.008696 17.291587,40.4532858 16.5213053,39.9925254 C13.0977137,39.5641473 9.57567149,40.0238495 6.37961515,38.3721389 C2.12700952,37.4762276 -2.15749753,36.4854976 -6.36235668,35.3444966 C-7.47552569,35.7785892 -8.52172288,37.3320945 -7.63756795,38.4720373 C-7.140244,38.9907896 -7.77953978,39.8378098 -8.40573696,39.4691168 C-10.5059482,38.2324504 -12.1301736,36.3019977 -13.5072158,34.2223323 C-14.1553848,33.5681246 -15.3059482,33.7088713 -16.1767933,33.4373253 C-16.2932018,33.6466464 -16.3618637,33.8798839 -16.3608074,34.1190475 C-20.0548215,34.7273274 -17.4196806,38.7634783 -15.5626384,40.021098 C-16.5477792,40.6628185 -16.5851736,41.91938 -16.4989764,42.9687369 C-16.7077088,43.3425094 -16.7774271,43.8058096 -16.595737,44.2246634 C-15.9010891,45.8260015 -14.3987651,47.1746305 -13.2564412,48.4720403 C-11.9951736,49.9049056 -10.8705961,51.3456019 -9.33594823,52.5071329 C-3.48637076,56.9678521 3.57271374,59.461715 10.8145447,60.4369947 C13.3858828,60.8321438 17.0845447,61.4368257 18.6766574,63.6119449 C18.2860236,66.1934305 17.5687701,68.6690916 16.9180659,71.1864476 C16.0081363,74.5277541 16.0700377,78.0258926 16.0579954,81.432387 C15.9308123,81.3301604 15.686587,81.3513253 15.650249,81.5460426 C15.4385588,82.9581663 15.2811644,84.4020374 14.4232067,85.588543 C13.671094,87.7949862 13.1706011,90.1483141 12.8894039,92.4662965 C11.762925,103.455548 11.4939813,114.768834 14.0338405,125.586862 C15.0139109,129.600154 16.607925,133.414285 18.779756,136.926393 C19.4272912,137.973845 20.468418,138.280736 21.4032771,138.075013 C24.5321504,139.701114 28.4737701,140.222406 31.8462349,139.809267 C43.3436292,136.553255 39.3375729,144.393801 55.457925,141.992852 C83.2833475,138.446881 111.403911,145.41522 139.170179,141.32404 C139.854052,146.608287 148.806305,145.092455 151.915953,142.858497 C161.240038,135.924233 165.869756,113.97007 170.549122,102.832876 C173.765671,94.054724 179.151728,78.5069713 186.205319,72.6165615 C188.320319,70.9616761 190.876869,70.0905279 193.434897,69.3872175 C202.981657,66.9261602 212.565179,64.5988652 222.130108,62.2061706 C223.752221,61.8065769 223.460671,59.0390515 221.726164,59.2166252 C219.424193,59.4521908 217.114404,59.6655333 214.804615,59.8875533 Z" id="âœ‹-Skin" fill="#D08B5B"></path>
                        <path d="M2.28060107,58.2414739 C1.63412219,58.1612665 1.00031938,57.9308947 0.370741912,57.7491334 C-0.590525694,57.4680375 -1.53277922,57.1404446 -2.460244,56.7663546 C-4.37432851,55.9993643 -6.23137076,55.0924602 -7.97221583,53.9828712 C-10.7841877,52.1885072 -13.2686947,49.889016 -15.1426384,47.1203272 L-15.2712922,46.9272325 C-16.3411172,45.2970437 -18.3145257,41.6772117 -16.1017933,40.4395444 C-17.527913,39.2474653 -18.8758003,37.1064868 -18.799744,35.4537275 C-18.6919975,33.1161933 -15.8272088,33.1481072 -14.3462229,34.1391287 C-13.3765046,34.7879741 -12.649744,35.6967804 -11.9208708,36.5910035 C-11.1138285,37.5841385 -10.2518567,38.5309878 -9.35608203,39.4419076 C-9.11840598,39.6828469 -8.87835316,39.9190309 -8.63414101,40.1513511 L-8.38849753,40.3823953 C-8.42650457,40.2916203 -8.46030738,40.1986262 -8.48988485,40.1033072 C-8.98425105,38.5627749 -8.39481443,36.5570606 -6.85467358,35.8511506 C-5.91216242,35.4189135 -4.93333107,35.6827669 -4.0200066,36.0497 L-3.88002569,36.1068845 C-2.65044823,36.6160274 -1.40608203,37.0664148 -0.125800342,37.4278238 C5.09250952,38.9009354 10.5389884,39.1461017 15.8861715,39.8816007 C17.9460306,40.1669236 20.043918,40.5260078 22.0932137,41.0543835 C22.8748616,37.7341338 24.7910588,34.5514097 26.8699321,31.9327796 C36.8248616,19.4058364 53.2424673,15.2656955 68.2614813,12.5857737 C69.6304954,12.3427209 70.765087,14.1560219 71.5615659,13.7269808 C73.0721292,12.9153956 74.4010025,11.7656501 75.5671997,10.5165698 C78.0538194,7.85144262 79.8179039,4.71711776 81.8904391,1.74764614 C82.915087,0.280875101 85.2728335,1.59336042 84.3221292,3.16792011 L83.8563926,3.93742865 C81.9387614,7.08945145 79.8152331,10.3377994 77.065087,12.782245 C75.6031152,14.0799358 73.9805799,15.1049847 72.1256504,15.7451647 C70.7207208,16.2293683 68.749594,16.6372743 67.2115659,16.1678653 L67.0269806,15.8988947 C67.0880494,15.9888352 67.1495518,16.0785416 67.2115236,16.1680133 C71.2255659,21.9864657 76.2621856,26.9109275 81.5692278,31.5585205 C86.9260607,36.2470697 92.7048979,40.4456222 98.5184923,44.5507263 L99.0030306,44.8926105 C108.474093,37.9817146 116.474752,28.9674894 122.088127,18.6684777 C120.911566,18.5267037 119.747481,17.7723945 118.741848,17.2099913 C117.531284,16.5296547 116.392552,15.7178583 115.505228,14.6357448 C113.572129,12.279189 113.823538,9.24208528 113.474946,6.38251581 C113.453819,6.20498156 113.688326,6.160598 113.796073,6.24936512 C114.84396,7.12012833 115.211566,8.54674281 115.64889,9.77891502 C116.13058,11.1336704 116.67565,12.2498113 117.78058,13.2027898 C118.809453,14.0906724 120.064383,14.7435334 121.283397,15.3247467 C121.912053,15.6229683 125.032782,16.3893687 125.388263,17.0241088 C130.779876,15.7580782 136.031988,17.9455538 140.027059,21.6357299 C143.886918,25.2012093 146.720017,29.8361213 149.221425,34.4118551 C151.889735,39.2940469 154.076355,44.3831506 155.960862,49.6140704 C157.870721,54.9234011 159.334805,60.3487632 160.139735,65.9368649 C160.819171,70.6481166 161.235757,75.4333848 161.505381,80.1973051 L161.538326,80.7926771 C165.526995,74.5303256 169.615024,68.333535 173.787559,62.1916955 C172.838967,59.6576054 173.888967,57.0706778 175.665728,55.1135741 C177.634742,52.9472336 180.357981,51.9412062 182.962911,50.7703256 L183.305306,50.6153843 C184.560828,50.0424587 185.812207,49.4115193 186.896714,48.553261 C187.940376,47.7247679 188.707277,46.5834763 189.805869,45.8205017 C191.403052,44.7087992 194.301643,44.9455115 194.375587,47.3739264 C194.413615,48.7077581 193.84108,50.1700908 193.317136,51.3684469 C192.723474,52.7234137 191.92277,53.9511475 190.972066,55.0797581 C190.928122,55.132342 190.880122,55.1738343 190.831311,55.2067238 L190.794622,55.2298168 C192.108707,55.4475076 193.433355,55.6229283 194.783355,55.6842199 C197.506594,55.8089166 200.259411,55.6081338 202.925608,55.033261 C205.655186,54.4457072 208.300256,53.4906152 210.755186,52.158897 C212.853073,51.0218324 214.796735,49.5508344 217.179833,49.2042199 C217.399531,49.1704461 217.621362,49.1493111 217.849531,49.1366301 C218.229812,49.1154951 218.610094,49.5635577 218.460094,49.9395499 C218.3777,50.1468845 218.29108,50.3518943 218.19601,50.5590176 C217.372087,52.3744056 216.108312,54.1355996 214.531985,55.4723158 L214.410115,55.5742966 C214.965791,55.3820101 215.512974,55.1664328 216.051707,54.92338 C219.218608,53.4967655 222.091848,51.3409925 225.486918,50.4744563 C225.647481,50.4321651 225.810157,50.3941221 225.972833,50.3581925 C227.022833,50.1320477 227.576355,51.2733393 226.959453,52.0553354 C226.860157,52.1821456 226.760862,52.3068422 226.657341,52.4315389 C225.142552,54.3124931 223.471425,56.0582465 221.629171,57.6264657 C220.997481,58.1632955 220.346777,58.6832172 219.683397,59.1801017 C219.403841,59.3906321 219.122725,59.5966081 218.838709,59.7992437 L218.698826,59.8984814 C219.030517,59.6640939 219.357981,59.4252681 219.683333,59.1801017 C221.762207,58.5500665 223.811502,57.804 225.816432,56.9778317 C226.612911,56.6500274 227.231925,57.4573855 227.316432,58.1210254 C227.599531,60.3446418 225.131925,61.9530176 223.526291,63.0222387 C221.916432,64.0961095 220.143897,64.9119217 218.329108,65.5668962 C214.839803,66.8284068 211.174969,67.4012651 207.515874,67.9146356 L205.738662,68.1622679 C198.704125,69.1462948 191.356805,70.3227639 186.30939,75.7985753 C183.480517,78.8671702 181.566432,82.6799295 179.815024,86.4313972 C178.065728,90.1788493 176.529812,94.0254246 175.072066,97.893135 C173.561502,101.895898 172.245305,105.972845 170.846714,110.015976 C169.562207,113.72845 168.027923,117.393428 166.508321,121.02124 L166.268545,121.593746 C163.042488,129.304016 159.188967,136.5658 153.818545,143.00353 C152.933333,144.066622 151.503052,142.557793 152.320657,141.505057 C157.938263,134.259969 161.846714,125.711061 165.07277,117.182865 C166.54108,113.302685 167.770657,109.329088 169.181925,105.427562 L170.021688,103.109828 C171.142995,100.020164 172.274038,96.9344501 173.453756,93.8690254 C174.947418,89.9905362 176.588967,86.1587553 178.467136,82.4516712 L178.666387,82.0613606 C180.505214,78.4850555 182.689857,74.9604342 185.696714,72.2540195 C191.108798,67.3806157 198.310473,66.2114089 205.273536,65.285369 L207.464065,64.996588 C210.407923,64.6053405 213.360094,64.1732172 216.22277,63.3857612 C217.874883,62.9336829 219.488967,62.3543718 221.005869,61.5554677 C221.610094,61.2384422 222.199531,60.8899256 222.769953,60.5094951 C221.143193,60.9871467 219.493193,61.3779334 217.813615,61.6843913 C216.991784,61.8344501 216.178404,61.9466771 215.367136,62.0248767 C213.277784,62.2317252 211.205249,62.2232712 209.065108,62.1114669 C208.883418,62.100688 208.824263,61.8155765 209.018629,61.7796469 C210.509026,61.5144984 212.001169,61.1829753 213.487122,60.8231876 L213.932693,60.7142935 C213.941143,60.467225 214.038326,60.2049393 214.241143,59.9557573 C214.98058,59.055405 216.38551,58.5944501 217.359453,57.9582857 C218.379876,57.2925322 219.368608,56.5741526 220.310862,55.8046262 C221.172833,55.101041 222.001002,54.3568767 222.797481,53.5793189 L223.036255,53.3445774 C222.957003,53.4231158 222.877411,53.5013448 222.797481,53.5791921 C220.646777,54.5727499 218.608045,55.8469808 216.36227,56.6334152 C214.577059,57.2609142 212.705228,57.6836148 210.816495,57.8336735 L210.699242,57.8429201 L210.581988,57.8505816 C208.610841,57.9922074 206.627038,57.9351428 204.685488,58.3620704 C204.467883,58.410681 204.400277,58.1190176 204.594643,58.036591 C206.291122,57.330681 208.055207,57.0580391 209.838305,56.7283326 C209.876312,56.588778 209.973495,56.4640814 210.14251,56.3837683 L210.598723,56.1658746 C211.957298,55.5131319 213.223636,54.8542262 214.353073,53.7947272 C215.350256,52.8584454 216.180538,51.7638622 216.803777,50.5505001 C214.308707,51.0979185 212.117862,52.9895037 209.848848,54.0525956 C207.377017,55.2129088 204.761524,56.0456289 202.0742,56.5192649 L201.768026,56.5717389 C196.746081,57.4097478 190.707031,57.3029053 186.208002,54.6908735 C186.064341,54.6063334 186.167862,54.414216 186.315749,54.4372532 C187.591805,54.64649 188.855186,54.8937698 190.118566,55.1135741 C189.871362,54.8874293 189.761502,54.4816367 190.046714,54.1561573 C191.181425,52.8553303 192.078708,51.3684447 192.652398,49.7414724 L192.762122,49.4233155 C193.026338,48.6686564 193.472629,47.4967068 193.017136,46.8159616 C192.581925,46.1671162 191.557277,46.2558833 190.944601,46.5306387 C189.670657,47.1055115 188.823474,48.5407913 187.750235,49.4071162 C186.579812,50.3539655 185.248826,51.0556485 183.88615,51.6833589 L183.598405,51.8141474 C181.241442,52.8747683 178.723184,53.7676043 176.869953,55.6398364 C175.87277,56.6458638 175.015024,57.903398 174.7277,59.3131045 C174.596714,59.9598364 174.596714,60.6255898 174.769953,61.2659812 C174.907277,61.7668814 175.194601,62.0756641 175.029812,62.584807 C174.814319,63.2421064 174.051643,64.0283295 173.658686,64.6137698 C173.202348,65.2903021 172.748122,65.9685252 172.293897,66.6469596 C171.387559,68.0038285 170.485446,69.3649244 169.583333,70.7239068 C167.779108,73.4460986 165.993897,76.1809714 164.223474,78.9242982 C163.647418,79.8176054 163.07324,80.711852 162.500939,81.6070379 L161.64396,82.9505636 L161.191055,83.6588512 L160.418587,84.873661 C160.446052,84.985888 160.443939,85.1042442 160.408024,85.2075945 C160.276333,85.5828587 160.029692,85.8393557 159.723271,86.0253361 L159.668545,86.0573706 C155.160094,93.186216 150.723474,100.361558 146.242488,107.507523 C146.003756,109.688384 145.779812,111.871632 145.585446,114.054881 C145.143897,118.99625 144.841784,123.950513 144.744601,128.910693 C144.698122,131.311843 144.890376,133.727366 144.993897,136.126192 C145.044601,137.271106 145.113931,138.414624 145.204549,139.557808 L145.271211,140.368103 C145.36047,141.481627 145.41108,142.586902 145.010798,143.64836 C144.655869,144.580203 143.574179,144.78944 142.934038,144.079515 C134.58265,143.743341 126.224904,143.487607 117.867157,143.329094 C102.907298,143.041658 87.9411011,143.086041 72.9791292,143.375591 C65.4643405,143.521423 57.9474391,143.726433 50.434763,143.980053 C46.7333546,144.102636 43.0298335,144.275944 39.3263123,144.326668 C37.3309743,144.353868 34.1905758,143.627064 34.0295708,141.381331 L34.0256081,141.312749 C33.7763123,141.380381 33.5185659,141.435332 33.2544813,141.475489 C33.1369129,141.493583 33.0239901,141.488441 32.9196902,141.46404 L32.8678616,141.450254 C29.8934844,142.35716 26.1310568,141.06314 23.3047469,140.309035 L23.071425,140.247501 C20.3735377,139.543705 18.2059321,138.537677 16.4376222,136.301591 C13.3425518,132.385482 12.2862137,127.126875 11.736918,122.280613 C11.221425,117.719674 11.1918475,113.074405 11.8193123,108.52192 C11.4495729,104.812744 11.8108405,100.98519 12.231263,97.2969158 C12.4383053,95.4729628 12.681263,93.6511232 12.9728123,91.8377377 C13.1354884,90.8253698 13.3488687,89.8235694 13.5664743,88.8238825 C13.6533581,88.4244305 13.7256843,87.9943954 13.8358199,87.5786607 L13.8854673,87.4014951 C13.5474391,87.4458786 13.1777208,87.371906 12.8206785,87.1755616 C11.9713828,86.7084774 11.7241997,85.7635303 11.7094109,84.8591624 C11.6629321,82.1325322 11.9882842,79.3281252 12.2756081,76.6186144 C12.5650447,73.9133307 12.9622278,71.1972681 13.4819461,68.5258003 L13.616434,67.8370213 C14.0102382,65.838651 14.4608437,63.7756661 15.2544813,61.8978551 C12.2735588,61.3908047 9.3010236,60.8518614 6.40877008,59.9343898 C4.99750247,59.4842137 3.60736163,58.9243467 2.28060107,58.2414739 Z M157.870657,86.6153354 C157.8242,86.6259452 157.779833,86.6386262 157.735467,86.6513072 C156.543918,86.9852407 155.339693,87.2684501 154.139693,87.5727945 C152.065045,88.0948297 150.036876,88.6781565 148.108002,89.5848493 C147.703932,94.6868929 147.104914,99.772303 146.53549,104.860325 L146.422066,105.878012 C147.296714,104.254631 148.192488,102.644142 149.128404,101.052885 C151.978404,96.2021847 154.893897,91.3897385 157.870657,86.6153354 Z M14.6122278,87.1206105 C14.618587,87.7269745 14.4918264,88.3570097 14.4242208,88.9401252 C14.3143616,89.8871859 14.2256292,90.8382622 14.1136574,91.7849001 C13.8854884,93.6870528 13.6911222,95.5913189 13.5495729,97.5019256 C13.4587278,98.7216281 13.3995729,99.9453463 13.346756,101.169065 C14.5446644,96.6903193 16.1312842,92.3092391 17.6397349,87.9213956 C17.387594,87.8947796 17.1298382,87.8332109 16.8639508,87.7625589 L16.4163474,87.6419517 C16.1524198,87.5739562 15.2962378,87.3632904 14.6122278,87.1206105 Z M161.643981,82.9505847 L161.652432,83.1513675 C161.684122,83.863618 161.257362,84.2651835 160.739756,84.3687452 C161.039756,83.8953205 161.341869,83.4218958 161.643981,82.9505847 Z M24.5734954,49.1938003 C25.834763,49.3056047 27.0706785,49.5742309 28.2495518,50.0392015 L28.3633017,50.0836181 C29.2352505,50.4203027 30.5101152,50.8433444 30.7953264,51.7743874 C30.8756081,52.0385753 30.6601152,52.2560547 30.4129321,52.2774011 C29.4664532,52.3534872 28.3509602,51.3387945 27.4741997,50.996407 C26.4981433,50.6159765 25.4756081,50.3327671 24.4403968,50.1827084 C22.1143405,49.8424344 19.6889884,50.1004931 17.500256,50.9480078 C17.3713828,50.9987319 17.2911011,50.7935107 17.4072982,50.7322191 C19.6129321,49.5317495 22.065749,48.9718825 24.5734954,49.1938003 Z M-2.15390598,55.2382919 C-2.29976513,55.1093048 -2.44553978,54.9740407 -2.58920175,54.8389878 C-3.72189793,53.7669889 -4.72493939,52.5159572 -5.46761903,51.141228 L-5.66307997,50.7691566 C-6.26797154,49.5975981 -7.01075274,47.9284622 -5.58920175,47.0843342 C-4.73990598,46.5794183 -3.71737076,46.7060172 -2.77089189,47.0124751 C-2.70962429,47.0314966 -2.64835668,47.052843 -2.58708907,47.0737667 C-2.16455386,47.2219232 -1.75680738,47.3992461 -1.3934271,47.5683264 C0.184741912,48.2932579 1.57699543,49.3478958 3.03474191,50.2780485 C4.61425536,51.2861766 6.17390305,51.9308179 7.99686224,52.3081362 L8.16854473,52.3427295 C9.87981233,52.6811013 11.7347419,52.8985808 12.9284039,54.3061737 C13.2284039,54.6614536 12.953756,55.3269956 12.4361504,55.1515749 C9.13615036,54.0379702 5.64389684,53.7925925 2.61431938,51.9644125 C1.3593898,51.2077784 0.172065855,50.3393401 -1.11032851,49.6226512 C-1.7906102,49.2419389 -2.4929764,48.9090951 -3.24147468,48.6808255 L-3.65038314,48.5602125 C-3.88989946,48.490254 -4.17582147,48.4211835 -4.36807499,48.490025 C-4.734045,48.6168352 -4.61724326,48.8127246 -4.50401571,49.1546962 L-4.49272288,49.1893831 C-3.60328626,51.9413753 -1.06807499,54.2448821 1.28122078,55.7687178 C1.81995318,56.1195592 2.37136163,56.441023 2.93333346,56.739027 C6.73731023,58.7673723 10.993658,59.711399 15.1740602,60.8320292 C16.7854489,61.2820131 17.8580447,61.5915452 18.3918475,61.7606254 C19.2833968,61.6864414 20.299594,62.0015647 20.971425,62.3777683 C21.6242419,62.7431929 22.1502982,63.2337369 22.5474813,63.8107232 C22.5474813,63.8107232 22.9298757,64.1298622 22.999594,64.6244219 C23.2002982,65.083052 23.3355095,65.5774003 23.4031152,66.0933064 C23.4411433,66.3955373 23.365087,66.6278113 23.221425,66.7926645 C23.6535427,73.4275365 21.8620982,80.0250594 19.8424091,86.3305728 L19.6422877,86.9523387 L19.5136785,87.3464806 C17.3355095,94.0315326 14.8362137,100.668143 13.7207208,107.638265 C12.9749461,112.294312 12.9981856,117.113098 13.5453687,121.79028 L13.5839471,122.112867 C14.1230838,126.535076 15.1604089,131.495848 17.971425,135.054836 C19.4052153,136.871128 21.1039321,137.678265 23.2757322,138.263149 L23.3946644,138.294836 C25.3594532,138.812433 27.3876222,139.54603 29.4136785,139.767948 C31.2939602,139.972746 32.8700166,139.273388 34.5622701,138.617991 L34.5643405,138.616046 C38.1284461,135.460565 39.746756,130.86581 40.9425306,126.228573 C44.0418264,114.228315 43.6573194,101.771328 41.8995729,89.5954379 C40.9826715,83.2337941 39.7361926,76.9271013 38.4939391,70.6225221 C37.8728123,67.4712892 37.203094,64.3263968 36.6474602,61.1645964 L36.3174619,59.3037562 C36.1353674,58.269956 35.959256,57.2353303 35.8087278,56.195751 C35.6059109,54.7987256 35.5446433,53.4249487 35.474925,52.0194692 C33.7678828,49.1894677 31.2897137,46.8582739 28.418587,45.1864931 C26.3629532,43.9881369 24.1868968,43.1575303 21.9411222,42.555182 C15.5206785,40.824223 8.52138276,40.9468062 2.06081938,39.6152994 C-0.109541922,39.1685232 -2.16972457,38.505171 -4.22881467,37.7103261 L-4.50960316,37.6011311 C-5.45396936,37.2333816 -6.41734964,37.0283718 -6.88636372,38.1421878 C-7.22016654,38.9347514 -7.02157499,39.7590176 -6.52087076,40.424771 C-5.29340598,42.0563953 -2.82580034,42.8130293 -0.968758088,43.4005831 C0.148847545,43.7556516 1.28969262,44.0367475 2.44321374,44.2459843 C3.59673487,44.4552211 4.75448135,44.5080587 5.8615236,44.9159647 C6.28828417,45.0723639 6.37279121,45.7507984 5.8615236,45.8710567 C4.4587067,46.198861 3.04743909,45.9177651 1.6530729,45.6451232 C0.121382757,45.342681 -1.38706795,44.9138512 -2.85326513,44.370681 C-3.12368767,44.2709236 -3.40357499,44.1657557 -3.68860034,44.0539869 L-3.90326513,43.9690309 C-3.68143414,44.1298684 -3.45960316,44.2883812 -3.2356595,44.4468939 C-3.17650457,44.4889526 -3.21242006,44.6009683 -3.29058907,44.5734927 C-6.73806079,43.2868891 -9.87484819,40.9654246 -12.3048891,38.2187103 L-12.4258003,38.081023 C-13.2814341,37.1001463 -15.2314341,34.1327882 -16.8750961,34.9591679 C-18.4185327,35.7342317 -15.7875108,38.7220011 -14.7876429,39.9435329 L-14.6715327,40.0866951 C-13.534913,40.1162841 -12.4342088,40.8240962 -11.513082,41.394742 C-9.91378626,42.3861863 -8.2426595,43.2400414 -6.5398426,44.0387342 C-3.15533555,45.6302019 0.438326419,46.7526833 3.78691797,48.4242528 C3.83128417,48.4477127 3.79748135,48.5045659 3.75522783,48.4984367 C1.62353769,48.1579514 -0.484913018,47.6147812 -2.54477217,46.9407851 L-2.63667358,46.9119622 L-2.72857499,46.8813956 C-4.01519471,46.4586951 -5.28491302,45.9812547 -6.53350457,45.4716892 C-7.92153274,44.9054818 -9.27787076,44.2693174 -10.5940679,43.5486129 C-11.7856172,42.897654 -13.1081525,41.7246598 -14.4898426,41.5513526 C-14.6377299,41.5323311 -14.7687158,41.5300062 -14.8828003,41.5407851 C-16.4693989,41.6738301 -15.1574271,44.3030277 -14.7137651,45.0892508 C-13.9891172,46.3806011 -13.1144694,47.5726168 -12.1109482,48.6610708 C-10.0764412,50.8717949 -7.61094823,52.6238888 -4.94263837,53.9870982 C-4.03207499,54.4520688 -3.10038485,54.8620884 -2.15390598,55.2382919 Z" id="ðŸ–-Ink" fill="#000000"></path>
                    </g>
                    <g id="head/Short-4" transform="translate(78.591549, 38.043053)" fill-rule="evenodd">
                        <path d="M85.4943943,64.251081 C85.0405732,60.2533902 85.6278941,51.8974356 85.6672478,51.3897816 C85.9160381,48.18044 84.4160565,35.5072297 81.5804834,36.6749401 C76.823885,32.9000125 70.4885155,32.066447 64.5644551,31.668263 C52.2592762,30.841038 39.1688119,32.7400204 29.6670524,41.0418599 C24.9680718,45.3531945 20.3933903,51.6237464 20.7611085,58.1527796 C16.4917798,64.3415389 10.4729845,72.8308462 15.7923816,80.0660008 C17.600545,82.3775389 20.4743142,83.2383687 22.7457939,84.9889832 C27.3146488,88.6833863 30.1810809,93.9853198 34.7933111,97.6577425 C47.0126027,108.6655 67.7610567,110.964991 79.7664935,98.4445996 C89.0500822,89.3768266 87.5489743,75.8110967 85.9160381,64.251081 C84.8182032,56.4791984 86.3797524,72.0501615 85.4943943,64.251081 Z" id="âœ‹-Skin" fill="#D08B5B"></path>
                        <path d="M48.1264218,14.7152853 C51.4173516,14.0495319 54.7966157,13.6352853 58.1573275,13.759982 L58.4164378,13.7700709 C60.9450634,13.8713845 64.1473678,14.0955006 66.3532394,15.5695632 C66.4801542,15.4419076 66.6842298,15.376389 66.8693314,15.4649448 C69.4906909,16.7193088 72.3738911,17.6262129 75.1339713,18.5274106 C77.8814022,19.4241699 80.7317142,20.016162 83.6113305,20.2547765 C84.6947442,20.3446004 85.6219388,21.5173832 84.9359244,22.5692736 C84.7727483,22.819935 84.6137886,23.0731327 84.4554613,23.3269644 C84.7202536,23.2992775 84.9850459,23.2707452 85.2498382,23.2439037 C86.1211651,23.155982 86.9916487,24.0882481 86.9399973,24.9387217 C86.9077416,25.4736493 86.8501872,26.0022364 86.7650152,26.524483 C87.0968488,26.5175084 87.4267851,26.5673871 87.7455478,26.7024399 C89.3596002,27.3857354 89.2472321,29.3130387 89.1264312,30.7793871 C88.9590386,32.8142677 88.199869,34.969618 86.7903138,36.4926082 C87.8427367,37.5884595 88.5877812,38.8971405 89.0321938,40.4514106 C89.3545405,41.5863616 89.5339499,42.7952853 89.4454047,43.9767335 L89.417177,44.3304531 C89.3076757,45.6125551 89.089968,47.0320043 88.1699323,47.954346 C87.6976912,48.4298841 87.1158228,48.6031914 86.5611504,48.5482403 C86.896568,51.5029174 87.1116063,54.4745025 87.3139954,57.4355202 L87.4088998,58.8507542 C87.8603685,65.6942495 88.1996513,72.5823139 88.1109021,79.4370857 C88.0284708,85.8431131 86.7658584,92.0610387 82.8466794,97.2623695 C79.277254,101.99873 74.1523846,105.490236 68.3547825,106.817516 C65.230402,107.533994 62.0406668,107.584718 58.8783384,107.128201 C57.3454524,106.906283 55.802447,106.566009 54.3475651,106.02918 C52.7370966,105.433172 51.5796844,104.556068 50.4960599,103.241469 C49.9835519,102.617986 50.2302135,101.290706 51.2508023,101.415403 C52.794306,101.603024 54.2033455,101.82916 55.6831009,102.286822 L55.8949978,102.353798 C57.3688536,102.827223 58.8952041,103.180178 60.4361014,103.330236 C63.5923159,103.636694 66.7965979,103.328123 69.8199947,102.368593 C74.7426859,100.8046 78.9823141,97.3194341 81.6998083,92.940256 C84.9253833,87.7494928 85.2901052,81.8570466 85.2435135,75.8885143 C85.193582,69.3391024 84.9811156,62.7858967 84.6342574,56.2432737 L84.5752081,55.152937 C84.3917931,51.7861268 84.2147027,48.4172031 84.0589053,45.0482795 C84.0104163,43.991528 83.9366286,42.9263225 83.8036,41.8716845 C82.5873685,41.1573205 81.4974193,40.1724282 80.7869495,38.957164 C79.3596853,39.5489448 77.8586334,39.9758724 76.4775392,40.3161464 C73.2785278,41.1049057 69.9572397,41.296389 66.7010956,40.8024634 C65.8228116,41.1661973 64.9270293,41.4859703 64.0175437,41.7611483 C63.7717254,41.8704164 63.525907,41.9777824 63.2802995,42.0830348 C61.087541,43.0235436 58.86337,43.8203342 56.5487565,44.4036611 L55.9801343,44.5458152 C54.7620366,44.846846 53.4389419,45.143291 52.1425789,45.2363812 C51.9296488,45.3188078 51.6998529,45.3885534 51.448764,45.449845 C50.2683723,45.7372814 49.0432862,45.828162 47.8333794,45.7267139 C46.6546742,45.6273793 45.8029537,44.4332501 46.4522852,43.315207 C46.9266344,42.4993949 47.4054109,41.6856963 47.8881931,40.8741112 C46.2079426,41.5757941 44.4728784,42.1591209 42.7230567,42.6536806 C40.9563692,43.1524673 39.1643831,43.5730544 37.370078,43.9598254 C36.4108384,44.1648352 35.4475932,44.3465965 34.4904618,44.5516063 C33.8052906,44.697438 32.7532894,44.7735241 32.1944005,45.2258137 C31.5769032,45.7224869 31.401921,46.8806865 31.1676979,47.5950505 C30.8598979,48.5228783 30.5710719,49.4549331 30.3075446,50.3975554 C29.7828089,52.278573 29.3527322,54.1870661 29.0196336,56.1145808 C28.686535,58.044209 28.462853,59.9928587 28.3384681,61.9478489 C28.214294,63.9007256 28.2688969,65.8662834 28.0688269,67.8107061 C27.9610969,68.8420955 26.856601,69.3725847 26.0407203,68.6518802 C25.9450071,68.5673401 25.8485444,68.4818607 25.7530187,68.3954419 L25.6106436,68.2651092 C24.9126123,67.6310583 24.235874,66.9589644 23.6774068,66.2023303 C23.5762123,66.0628391 23.4792343,65.9170074 23.3885809,65.7690622 C23.3738233,65.7690622 23.361174,65.7648352 23.3464165,65.7542677 L23.191566,65.6374521 C21.4865122,64.3651622 18.6379414,62.7064485 16.9753789,64.8200994 C16.4455912,65.4934458 16.1743453,66.3508322 15.949221,67.1779997 L15.554201,68.6583873 C15.2986936,69.6247961 15.0582348,70.5965847 14.9175464,71.5854223 C14.5992053,73.8003734 14.7594299,76.3534849 16.2796666,78.1288274 C16.8868337,78.8389644 17.7237966,79.3462051 18.6575267,79.4793558 C19.1784676,79.5512149 19.6928731,79.4624477 20.2093867,79.3969292 C20.7343332,79.3314106 21.2400949,79.4370857 21.7652523,79.3863616 C22.600107,79.303935 22.9648288,80.3057354 22.6528124,80.9355593 C22.4841549,81.2737198 22.2857715,81.5653832 22.0604029,81.812663 C22.2414989,81.9690622 22.4145837,82.1381425 22.581133,82.3156767 C23.0744562,82.4741894 23.5169714,82.8144634 23.8481726,83.2646395 C24.1159164,83.628162 24.254848,84.0233871 24.2782492,84.4397472 C24.3075535,84.5433088 24.3328521,84.648984 24.3562533,84.7567726 L24.8085473,85.4926774 C24.9080248,85.6540814 25.0071449,85.8135241 25.1065685,85.9699233 C26.257656,87.7875358 27.5354475,89.3261659 29.1229364,90.776029 C30.6513951,92.1709409 32.3103526,93.4200211 33.7462605,94.9163812 L33.9154091,95.0940463 C35.254057,96.5081781 36.6650896,98.2200148 36.1411972,100.276225 C36.0062712,100.8046 35.2702919,101.185031 34.7898288,100.827849 C33.2445044,99.6781033 32.4663608,97.8562638 31.1552594,96.4613519 C29.8057885,95.0241699 28.3110612,93.7328196 26.9577955,92.2998646 C25.6778958,90.9472227 24.6680589,89.4149331 23.9072027,87.7283577 C23.6034084,88.0644047 23.1608932,88.3032305 22.5474015,88.3962247 C21.493292,88.5547374 20.5106512,87.935481 20.0512703,87.0203342 C19.7559088,87.1513714 19.4546443,87.2697276 19.15085,87.3627217 C17.55282,87.8530544 16.5474104,86.0713714 17.150361,84.7546591 C17.4727077,84.0487491 17.8753775,83.4358333 18.3752362,82.9201386 C16.8128352,82.7045613 15.2232381,81.8950896 14.1965355,80.8848352 C11.6205028,78.3465182 11.266322,74.5316454 11.8460822,71.1394732 C12.1538822,69.3408822 12.6849425,67.5211562 13.3745409,65.8324673 C13.4944986,65.5386904 13.6233108,65.2428 13.7643506,64.9511366 C13.6863465,64.9490231 13.6062342,64.915207 13.5556369,64.8496885 C13.0897205,64.2114106 12.5228205,63.6893753 12.1768617,62.9750114 C11.8585207,62.3198254 11.5045507,61.6561855 11.2534618,60.9735241 C10.737159,59.5764986 10.4841728,57.9998254 10.3155152,56.5224869 C9.96765912,53.4980642 10.1023743,50.492663 10.5642851,47.4872618 C11.3504399,42.3683577 13.2495235,37.4696806 16.0473409,33.1712384 C15.895007,33.0909856 15.7490236,32.9941182 15.6129753,32.8795713 L15.5457956,32.8208196 L15.4365899,32.7219076 C14.6382073,31.9976102 14.7071461,30.6401072 15.4365899,29.9065104 L15.666971,29.674999 C15.9586945,29.3844582 16.210264,29.1542724 16.6814931,28.8379233 C16.7510644,28.7912149 16.8221113,28.747254 16.8940016,28.7062521 C16.64734,28.2493127 16.5617463,27.7150192 16.7335661,27.1255632 C17.3323003,25.0720838 20.2795904,25.1447883 22.1476832,26.0402795 C24.2143702,24.1911757 26.5060042,22.5859703 28.9899077,21.2861659 C34.9057809,18.1919977 41.5949487,16.0341112 48.1264218,14.7152853 Z M17.5467694,68.7998254 C18.6514762,68.4384164 20.1187965,69.197164 21.1117677,69.6536806 C22.3703744,70.2327804 23.4413496,71.0887491 24.4785933,71.9933284 C24.9951069,72.445618 25.0876577,73.185344 24.9592672,73.8172814 C24.9464071,73.8806865 24.9339686,73.9462051 24.9190002,74.0117237 C24.781966,74.6859311 24.0314401,75.2164204 23.3673511,75.1973988 C21.9780348,75.1593558 21.3162649,73.9567726 20.5296884,72.9380642 C20.4371376,73.1029174 20.3211856,73.2550896 20.1776158,73.3692188 L20.0806694,73.4452938 C19.7542994,73.6944362 19.3945083,73.8935597 18.9632817,73.874346 C18.65759,73.8595515 18.3647584,73.7813519 18.0946955,73.6397472 C17.4200655,73.2825652 17.1230174,72.407575 17.3062217,71.6953245 C17.4200655,71.2472618 17.6814846,70.8964204 18.0230161,70.6533675 L17.8957064,70.5660741 C17.6233108,70.376026 17.3748706,70.175688 17.1812569,69.8800375 L17.1375641,69.8100798 L17.1544299,69.8100798 C16.943608,69.4465573 17.080853,68.9519977 17.5467694,68.7998254 Z" id="ðŸ–-Ink" fill="#000000"></path>
                    </g>
                    <g id="face/Smile" transform="translate(112.183099, 77.354207)" fill="#000000" fill-rule="evenodd">
                        <path d="M30.968993,50.9198978 C29.548794,50.3403012 28.2816173,49.3734958 27.3551889,48.1384646 C27.0331038,47.7091169 26.9495926,47.2557326 27.017159,46.8410547 C27.0931327,46.3747786 27.3688808,45.9521824 27.7449394,45.6687178 C28.1221628,45.3843752 28.5940214,45.2441445 29.0502103,45.3156301 C29.4466117,45.3777469 29.8412104,45.5948709 30.1535058,46.0451781 L30.2187521,46.1352289 C30.7695298,46.8806513 31.4872438,47.4922614 32.3050288,47.8864795 C33.0932406,48.2664417 33.9747757,48.4437847 34.8870208,48.3406561 C36.6244504,48.1443157 37.8219743,47.2043274 39.0948115,45.9278391 C39.2525834,45.7666792 39.4104563,45.6004672 39.5690946,45.4315797 C39.6692778,45.278484 39.8083069,45.1800892 39.962667,45.1284632 C40.1340565,45.0711416 40.327938,45.0743848 40.5055187,45.1363808 C40.6767961,45.1961763 40.8299095,45.309486 40.9325762,45.4602937 C41.0301525,45.6036243 41.0854754,45.7806897 41.0675245,45.9843589 C40.9510195,47.3072301 40.2596776,48.4878363 39.2776553,49.4148615 C38.1869942,50.4444414 36.7412431,51.1567117 35.3801317,51.4065272 C33.8805866,51.6817086 32.3525901,51.4845569 30.968993,50.9198978 L30.968993,50.9198978 Z M36.0875289,30.5120405 C37.6828906,31.482148 40.1137318,33.7442494 38.3974899,36.149264 C36.3773089,38.2698449 33.4687045,35.8384541 32.0353946,34.7388307 C30.7063626,33.8866164 29.2131206,36.0784478 30.4461973,37.0735516 C40.8033244,44.7445605 45.006466,30.7657101 36.8944406,29.3714319 C36.0012775,29.2177885 35.6695544,30.2119271 36.0875289,30.5120405 Z M17.5274577,21.5886716 C17.7037243,19.3998697 21.0359789,18.9028321 21.3674577,21.0687499 C21.6642887,23.0089456 21.3148521,24.7912626 20.4412606,26.5380728 C19.6065423,28.2068947 17.5085456,27.4283107 17.3498837,25.9087021 C17.1372039,23.8717299 17.4178099,22.9502317 17.5274577,21.5886716 Z M42.8930282,20.6196517 C43.3576056,20.0109628 44.0283803,19.5954481 44.8320423,19.8302583 C47.3429577,20.5642779 46.6028873,24.1303914 45.7210563,25.8662114 C45.2419014,26.8088337 43.6930986,27.0478708 42.993169,26.2178982 C41.8523239,24.864411 41.3059859,22.1614521 42.756338,20.8282544 C42.7956338,20.7593542 42.8393662,20.68982 42.8930282,20.6196517 Z M20.4058944,12.0111429 L20.802522,11.9416942 C22.0295218,11.7294045 23.5551549,11.5254176 24.4231479,12.5122544 C24.8835,13.0355577 25.0419507,14.0081918 24.4231479,14.509092 C23.3346972,15.3904227 22.1313169,15.0488806 20.8269507,15.1234873 C19.7520211,15.1852016 18.7189225,15.3631585 17.6835,15.6592603 C15.4119507,16.3087397 13.5610352,17.4944149 11.6209648,18.7963327 C11.3663873,18.9671037 11.1065282,18.6414129 11.228007,18.4032211 C12.3479366,16.208771 14.5182887,14.4061644 16.6922324,13.3073542 C17.8525141,12.7208571 19.1222324,12.2343288 20.4058944,12.0111429 Z M40.6041287,11.0281289 L40.9077055,11.0902829 C44.2113469,11.7811043 48.5035506,13.1610768 50.0679842,16.4073021 C50.1275964,16.8663298 50.0646105,16.9647086 50.0133917,17.0289838 L49.9963385,17.0503723 C49.9541341,17.1052595 49.9204583,17.1809212 49.7215736,17.2433957 C49.6663832,17.2302408 49.6106433,17.216308 49.5543131,17.2015401 C48.8372041,17.0135386 48.2698321,16.7545401 47.720556,16.4857982 L47.1250012,16.192275 C46.4340388,15.8533498 45.7369757,15.5267598 44.9982488,15.2856588 C43.4217423,14.7712438 41.8001698,14.4088706 40.1534741,14.2153715 C39.7965654,14.1734678 39.4528848,14.0529641 39.1817455,13.8464404 C38.92438,13.6504079 38.7277692,13.3789964 38.6381257,13.0182314 C38.5219478,12.5513438 38.5553348,12.1978716 38.8057421,11.7766707 C38.9940329,11.4603578 39.263447,11.2411116 39.5728025,11.115213 C39.888177,10.9868648 40.2472278,10.9566068 40.6041287,11.0281289 Z" id="ðŸ–-Ink"></path>
                    </g>
                    <g id="facial-hair/*-None" transform="translate(104.577451, 109.479380)"></g>
                    <g id="mask/*no-mask" transform="translate(83.450704, 97.432485)"></g>
                    <g id="accessories/Glasses-3" transform="translate(88.521127, 88.978474)" fill="#000000" fill-rule="evenodd">
                        <path d="M77.5634366,20.7796016 C76.1409718,22.691265 73.5039296,23.3001652 71.0716056,23.0898716 C65.8256197,22.5847444 64.1745634,16.6244548 64.0025915,11.9918677 C67.5204085,12.9818325 63.7051268,5.97049785 75.7302676,5.19949198 C79.9693521,4.84611429 78.8006197,7.40725714 80.673507,9.27855264 C80.6350563,13.2058638 79.9816056,17.4732376 77.5634366,20.7796016 M52.5766056,16.2668501 C49.4794225,30.7766818 32.5192817,27.3253315 30.737662,14.2457072 C32.3828028,13.084126 31.949493,10.2158912 33.9932958,9.1766818 C37.2324507,7.10629432 41.2816056,7.1948501 44.9599859,7.24346067 C49.6617465,7.56661526 51.0016056,9.51505362 53.4168169,11.6408149 C53.3006197,13.0606661 52.9655493,14.7434372 52.5766056,16.2668501 M84.2819577,2.79643914 C84.1080845,2.76748415 83.934,2.74021996 83.7599155,2.71464658 C83.6240704,2.63750372 83.4645634,2.57811429 83.2790704,2.54239609 C82.8554789,2.43481879 82.4348451,2.36232564 82.0148451,2.32322583 C75.9869577,0.966145597 62.0418169,2.89302622 61.4663239,8.03898317 C59.5467465,8.68000861 57.8857606,8.10598121 55.6609014,8.16304579 C53.9673803,1.08175421 24.6892817,2.08122975 23.2811831,6.35050568 C23.2759014,6.34902622 23.2706197,6.34775812 23.2651268,6.34606732 C21.912169,5.92717104 19.9175915,6.02819648 18.369,5.96183249 C15.0624507,5.89250959 11.7520986,6.18734325 8.51695775,6.88501057 C2.45885915,7.84813386 -5.80909859,8.97568767 -1.59578873,16.543719 C-1.59494366,16.5449871 -1.59430986,16.5464665 -1.59325352,16.5477346 L-1.59261972,16.5471006 C-0.866492958,17.2916877 0.365830986,16.6920869 0.411676056,15.6841573 C-1.00487324,12.098811 2.19456338,11.6682904 4.65625352,10.6379577 C10.7815352,8.43653307 17.0177324,8.13134325 23.3528028,8.81231389 C23.8294225,9.37366027 24.5525915,9.86314755 25.3169577,10.1193041 C29.552662,10.8226779 27.3204085,13.9658795 29.9978028,14.4230301 C29.5059718,25.3798521 42.8033662,31.3606427 50.5080845,24.158036 C53.5843521,21.1492532 54.317662,16.6920869 55.0309014,12.6745292 C55.4080141,12.5897777 55.6478028,12.3834998 55.7878732,12.1104352 C56.6948451,11.2045879 57.2646338,10.3680634 59.0580845,10.1193041 C60.8515352,9.87075616 62.232169,10.3697542 62.4189296,10.5225605 C62.4660423,10.6174568 62.5165352,10.7125644 62.5752676,10.807672 C62.6572394,10.9494881 62.7687887,11.0625605 62.8955493,11.1515389 C61.124493,22.0622865 69.5914648,28.9624509 78.1391408,23.3035468 C81.8532254,19.808447 82.6380845,14.4574802 82.7931549,9.6813863 C83.2966056,9.37746458 83.6154085,8.78843131 83.4411127,8.04785988 C83.2009014,7.02703796 83.7641408,6.14317104 84.6611831,5.69933542 C85.8267465,5.12298317 85.6205493,3.0181456 84.2819577,2.79643914" id="ðŸ–-Ink"></path>
                    </g>
                </g>
            </g>
        </g>
    </g>
</svg>